<svg xmlns="http://www.w3.org/2000/svg" width="21" height="22" viewBox="0 0 21 22">
  <g id="DatEngine" transform="translate(-2 -1)">
    <g id="Group_14" data-name="Group 14">
      <path id="Path_25" data-name="Path 25" d="M11,22c-5.25,0-8-1.49-8-2a.035.035,0,0,1,.01-.02H3v-4.7c1.49.97,4.51,1.63,8,1.63.38,0,.74-.01,1.11-.03a6.543,6.543,0,0,1,.29-1.01c-.45.02-.91.04-1.4.04-5.25,0-8-1.49-8-2V10.17c1.49.97,4.51,1.63,8,1.63s6.51-.66,8-1.63V12.1a5.651,5.651,0,0,1,1,.26V4c0-1.66-4.03-3-9-3S2,2.34,2,4V20.31h.05C2.51,21.82,6.34,23,11,23a25.479,25.479,0,0,0,3.38-.22,5.394,5.394,0,0,1-.95-.9C12.69,21.95,11.88,22,11,22ZM11,2c5.25,0,8,1.49,8,2s-2.75,2-8,2S3,4.51,3,4,5.75,2,11,2ZM3,5.37C4.49,6.34,7.51,7,11,7s6.51-.66,8-1.63V8.79c0,.51-2.75,2-8,2s-8-1.49-8-2Z" fill="#ff8000"/>
      <path id="Path_26" data-name="Path 26" d="M23,17.59a.524.524,0,0,0-.57-.58,5.421,5.421,0,0,1-.57-.01.534.534,0,0,1-.5-.39.576.576,0,0,1,.14-.62l.39-.39a.568.568,0,0,0,0-.87l-.54-.54a.572.572,0,0,0-.86,0c-.16.14-.31.3-.47.43a.612.612,0,0,1-1-.45v-.58a.541.541,0,0,0-.56-.58h-.8a.628.628,0,0,0-.65.64c0,.18.01.37,0,.55a.546.546,0,0,1-.38.53.562.562,0,0,1-.62-.15c-.13-.13-.26-.27-.4-.4a.559.559,0,0,0-.8-.01c-.2.19-.4.39-.59.59a.573.573,0,0,0,0,.82c.12.13.25.25.38.37a.582.582,0,0,1,.18.69.613.613,0,0,1-.61.37c-.18,0-.37-.01-.55,0a.621.621,0,0,0-.61.62c-.01.24,0,.49,0,.73a.619.619,0,0,0,.62.63c.2.01.4,0,.6,0a.562.562,0,0,1,.55.38.553.553,0,0,1-.15.65c-.14.14-.28.27-.42.41a.573.573,0,0,0,0,.82c.19.2.38.39.58.58a.557.557,0,0,0,.84-.02c.12-.12.23-.25.35-.37a.567.567,0,0,1,.65-.16.545.545,0,0,1,.36.56v.51a.622.622,0,0,0,.65.64h.79a.523.523,0,0,0,.56-.57v-.55a.609.609,0,0,1,.38-.59.583.583,0,0,1,.67.14c.15.14.29.28.43.42a.58.58,0,0,0,.81,0c.2-.19.4-.39.59-.59a.568.568,0,0,0-.01-.83l-.39-.39A.59.59,0,0,1,21.88,19c.19,0,.38,0,.57-.01a.52.52,0,0,0,.53-.55V18A2.748,2.748,0,0,0,23,17.59ZM18.06,19.9a1.9,1.9,0,1,1,1.91-1.92A1.906,1.906,0,0,1,18.06,19.9Z" fill="#ff8000"/>
    </g>
  </g>
</svg>
