<svg version="1.1" id="Layer_1" xmlns="http://www.w3.org/2000/svg" xmlns:xlink="http://www.w3.org/1999/xlink" width="20" height="22" x="0px" y="0px"
	 viewBox="0 0 24 24" style="enable-background:new 0 0 24 24;" xml:space="preserve">
<g>
	<path style="fill:#4D83B8;" d="M15,2v14H3V2H15 M16,1H2v16h14V1L16,1z"/>
</g>
<g>
	<path style="fill:#4D83B8;" d="M20,9v13H8V9H20 M21,8H7v15h14V8L21,8z"/>
</g>
<g>
	<rect x="7" y="8" style="fill:#4D83B8;" width="8" height="9"/>
</g>
<rect x="11" y="10" style="fill:#FFFFFF;" width="1" height="5"/>
<rect x="11" y="10" transform="matrix(-1.836970e-16 1 -1 -1.836970e-16 24 1)" style="fill:#FFFFFF;" width="1" height="5"/>
<g>
	<polygon style="fill:#808080;" points="14,4 4,4 4,5 14,5 14,4 	"/>
</g>
<g>
	<polygon style="fill:#808080;" points="14,6 4,6 4,7 14,7 14,6 	"/>
</g>
<g>
	<polygon style="fill:#808080;" points="6,8 4,8 4,9 6,9 6,8 	"/>
</g>
<g>
	<polygon style="fill:#808080;" points="6,10 4,10 4,11 6,11 6,10 	"/>
</g>
<g>
	<polygon style="fill:#808080;" points="6,12 4,12 4,13 6,13 6,12 	"/>
</g>
<g>
	<polygon style="fill:#808080;" points="19,20 9,20 9,21 19,21 19,20 	"/>
</g>
<g>
	<polygon style="fill:#808080;" points="19,18 9,18 9,19 19,19 19,18 	"/>
</g>
<g>
	<polygon style="fill:#808080;" points="19,16 17,16 17,17 19,17 19,16 	"/>
</g>
<g>
	<polygon style="fill:#808080;" points="19,14 17,14 17,15 19,15 19,14 	"/>
</g>
<g>
	<polygon style="fill:#808080;" points="19,12 17,12 17,13 19,13 19,12 	"/>
</g>
</svg>
