<svg xmlns="http://www.w3.org/2000/svg" width="22" height="22" viewBox="0 0 22 22">
  <g id="Excel" transform="translate(-1 -1)">
    <g id="Group_9" data-name="Group 9">
      <path id="Path_17" data-name="Path 17" d="M22,4H13V5h4V9H13v1h4v4H13v1h4v4H13v1H23V4Zm0,15H18V15h4Zm0-5H18V10h4Zm0-5H18V5h4Z" fill="#217346"/>
      <path id="Path_18" data-name="Path 18" d="M1,20l11,3V1L1,4ZM3.1,8H4.31L5.38,9.9c.3.53.53.94.74,1.37h.04c.23-.48.43-.85.73-1.37L7.99,8h1.2L6.73,11.93l2.52,4.15H8.04L7.01,14.3c-.42-.68-.68-1.13-.94-1.59H6.05c-.23.47-.46.9-.88,1.61L4.2,16.08H3l2.47-4.09Z" fill="#217346"/>
    </g>
  </g>
</svg>
