<svg xmlns="http://www.w3.org/2000/svg" width="17" height="22" viewBox="0 0 17 22">
  <g id="PDF" transform="translate(-2.66 -1)">
    <g id="Group_15" data-name="Group 15">
      <path id="Path_27" data-name="Path 27" d="M5.89,18a1.166,1.166,0,0,0,.57-.17,3.316,3.316,0,0,0,.77-.71A11.5,11.5,0,0,0,8.44,15.3a.213.213,0,0,1,.11-.1c.09-.04.19-.08.28-.12.11-.05.23-.1.34-.15a17.47,17.47,0,0,1,3.6-1.06c.04,0,.05,0,.11.04a6.876,6.876,0,0,0,2.67.96,2.093,2.093,0,0,0,.87-.07.818.818,0,0,0,.54-.53.833.833,0,0,0-.15-.74,1.22,1.22,0,0,0-.58-.41,3.456,3.456,0,0,0-1.22-.22,9.184,9.184,0,0,0-1.96.12.155.155,0,0,1-.11-.03,6.662,6.662,0,0,1-.87-.72,7.324,7.324,0,0,1-1.31-2.03.1.1,0,0,1,.01-.04l.07-.22c.06-.18.11-.36.17-.53a7.556,7.556,0,0,0,.36-2.01,2.879,2.879,0,0,0-.05-.59,1.045,1.045,0,0,0-.47-.71.97.97,0,0,0-.77-.1,1.059,1.059,0,0,0-.75.79,3.144,3.144,0,0,0-.04,1.39,8.406,8.406,0,0,0,.57,1.98.2.2,0,0,1,0,.15,31.583,31.583,0,0,1-1.91,4.17.256.256,0,0,1-.14.13,10.275,10.275,0,0,0-1.88,1.12,2.878,2.878,0,0,0-.81.88.885.885,0,0,0,.08,1.02A.9.9,0,0,0,5.89,18Zm8.91-4.29a3.758,3.758,0,0,1,1.08.16.659.659,0,0,1,.26.14l.03.03h-.01l-.03.01a1.83,1.83,0,0,1-.66,0,5.009,5.009,0,0,1-1.14-.32A2.467,2.467,0,0,1,14.8,13.71Zm-4.7-6.6c.04-.15.07-.25.2-.28a.17.17,0,0,1,.07-.01c.05,0,.09.03.12.1a1.023,1.023,0,0,1,.07.48,6.687,6.687,0,0,1-.26,1.56,5.01,5.01,0,0,1-.22-1.02A2.327,2.327,0,0,1,10.1,7.11Zm.28,4.17a6.687,6.687,0,0,0,1.52,1.94,21.526,21.526,0,0,0-2.77.85C9.57,13.16,9.99,12.25,10.38,11.28ZM5.84,17.05a.83.83,0,0,1,.19-.27A4.238,4.238,0,0,1,7.05,16a4.5,4.5,0,0,1-.92,1.07,1.941,1.941,0,0,1-.17.1c-.06.03-.08.01-.1-.01C5.82,17.14,5.81,17.12,5.84,17.05Z" fill="#f80101"/>
      <path id="Path_28" data-name="Path 28" d="M2.66,1V23h17V1Zm16,21h-15V2h15Z" fill="#f80101"/>
    </g>
  </g>
</svg>
